<mxfile host="app.diagrams.net" modified="2022-07-27T13:37:15.231Z" agent="5.0 (Macintosh; Intel Mac OS X 10_15_7) AppleWebKit/537.36 (KHTML, like Gecko) Chrome/103.0.0.0 Safari/537.36" etag="AyMHEaUltN19ah2cIt_Z" version="20.2.1" type="github">
  <diagram name="Page-1" id="74e2e168-ea6b-b213-b513-2b3c1d86103e">
    <mxGraphModel dx="1175" dy="798" grid="1" gridSize="10" guides="1" tooltips="1" connect="1" arrows="1" fold="1" page="1" pageScale="1" pageWidth="1100" pageHeight="850" background="none" math="0" shadow="0">
      <root>
        <mxCell id="0" />
        <mxCell id="1" parent="0" />
        <mxCell id="R8XW2edu5AEeeAmSSgoU-8" style="edgeStyle=orthogonalEdgeStyle;rounded=0;orthogonalLoop=1;jettySize=auto;html=1;fontSize=16;fontColor=#FFFFFF;strokeWidth=3;dashed=1;" edge="1" parent="1" source="R8XW2edu5AEeeAmSSgoU-2">
          <mxGeometry relative="1" as="geometry">
            <mxPoint x="160" y="800" as="targetPoint" />
          </mxGeometry>
        </mxCell>
        <mxCell id="R8XW2edu5AEeeAmSSgoU-2" value="&lt;font style=&quot;font-size: 16px;&quot;&gt;&lt;b&gt;Process A&lt;/b&gt;&lt;/font&gt;" style="rounded=1;whiteSpace=wrap;html=1;fillColor=#60a917;fontColor=#ffffff;strokeColor=#2D7600;strokeWidth=2;" vertex="1" parent="1">
          <mxGeometry x="100" y="160" width="120" height="50" as="geometry" />
        </mxCell>
        <mxCell id="R8XW2edu5AEeeAmSSgoU-10" style="edgeStyle=orthogonalEdgeStyle;rounded=0;orthogonalLoop=1;jettySize=auto;html=1;fontSize=16;fontColor=#FFFFFF;strokeWidth=3;dashed=1;" edge="1" parent="1" source="R8XW2edu5AEeeAmSSgoU-3">
          <mxGeometry relative="1" as="geometry">
            <mxPoint x="590" y="800" as="targetPoint" />
          </mxGeometry>
        </mxCell>
        <mxCell id="R8XW2edu5AEeeAmSSgoU-3" value="&lt;span style=&quot;font-size: 16px;&quot;&gt;&lt;span&gt;OS&lt;/span&gt;&lt;/span&gt;" style="rounded=1;whiteSpace=wrap;html=1;fillColor=#e51400;fontColor=#ffffff;strokeColor=#B20000;strokeWidth=2;fontStyle=1" vertex="1" parent="1">
          <mxGeometry x="530" y="160" width="120" height="50" as="geometry" />
        </mxCell>
        <mxCell id="R8XW2edu5AEeeAmSSgoU-11" style="edgeStyle=orthogonalEdgeStyle;rounded=0;orthogonalLoop=1;jettySize=auto;html=1;fontSize=16;fontColor=#FFFFFF;strokeWidth=3;dashed=1;" edge="1" parent="1" source="R8XW2edu5AEeeAmSSgoU-5">
          <mxGeometry relative="1" as="geometry">
            <mxPoint x="820" y="800" as="targetPoint" />
          </mxGeometry>
        </mxCell>
        <mxCell id="R8XW2edu5AEeeAmSSgoU-5" value="&lt;span style=&quot;font-size: 16px;&quot;&gt;&lt;font color=&quot;#ffffff&quot;&gt;Memory&lt;/font&gt;&lt;/span&gt;" style="rounded=1;whiteSpace=wrap;html=1;fillColor=#fa6800;fontColor=#000000;strokeColor=#C73500;strokeWidth=2;fontStyle=1" vertex="1" parent="1">
          <mxGeometry x="760" y="160" width="120" height="50" as="geometry" />
        </mxCell>
        <mxCell id="R8XW2edu5AEeeAmSSgoU-9" style="edgeStyle=orthogonalEdgeStyle;rounded=0;orthogonalLoop=1;jettySize=auto;html=1;fontSize=16;fontColor=#FFFFFF;strokeWidth=3;dashed=1;" edge="1" parent="1" source="R8XW2edu5AEeeAmSSgoU-7">
          <mxGeometry relative="1" as="geometry">
            <mxPoint x="360" y="800" as="targetPoint" />
          </mxGeometry>
        </mxCell>
        <mxCell id="R8XW2edu5AEeeAmSSgoU-7" value="&lt;font style=&quot;font-size: 16px;&quot;&gt;&lt;b&gt;Process B&lt;/b&gt;&lt;/font&gt;" style="rounded=1;whiteSpace=wrap;html=1;fillColor=#1ba1e2;fontColor=#ffffff;strokeColor=#006EAF;strokeWidth=2;" vertex="1" parent="1">
          <mxGeometry x="300" y="160" width="120" height="50" as="geometry" />
        </mxCell>
        <mxCell id="R8XW2edu5AEeeAmSSgoU-13" value="" style="endArrow=classic;html=1;rounded=0;fontSize=16;fontColor=#FFFFFF;strokeWidth=3;fillColor=#60a917;strokeColor=#2D7600;" edge="1" parent="1">
          <mxGeometry width="50" height="50" relative="1" as="geometry">
            <mxPoint x="160" y="270" as="sourcePoint" />
            <mxPoint x="590" y="270" as="targetPoint" />
          </mxGeometry>
        </mxCell>
        <mxCell id="R8XW2edu5AEeeAmSSgoU-15" value="&lt;font color=&quot;#000000&quot;&gt;&lt;b&gt;Request IPC&lt;/b&gt;&lt;/font&gt;" style="text;html=1;align=center;verticalAlign=middle;resizable=0;points=[];autosize=1;strokeColor=none;fillColor=none;fontSize=16;fontColor=#FFFFFF;" vertex="1" parent="1">
          <mxGeometry x="210" y="237" width="120" height="30" as="geometry" />
        </mxCell>
        <mxCell id="R8XW2edu5AEeeAmSSgoU-16" value="" style="endArrow=classic;html=1;rounded=0;fontSize=16;fontColor=#000000;strokeWidth=3;fillColor=#e51400;strokeColor=#B20000;" edge="1" parent="1">
          <mxGeometry width="50" height="50" relative="1" as="geometry">
            <mxPoint x="590" y="330" as="sourcePoint" />
            <mxPoint x="820" y="330" as="targetPoint" />
          </mxGeometry>
        </mxCell>
        <mxCell id="R8XW2edu5AEeeAmSSgoU-19" value="&lt;b&gt;Request Memory&lt;/b&gt;" style="text;html=1;align=center;verticalAlign=middle;resizable=0;points=[];autosize=1;strokeColor=none;fillColor=none;fontSize=16;fontColor=#000000;" vertex="1" parent="1">
          <mxGeometry x="640" y="300" width="150" height="30" as="geometry" />
        </mxCell>
        <mxCell id="R8XW2edu5AEeeAmSSgoU-21" value="" style="endArrow=classic;html=1;rounded=0;fontSize=16;fontColor=#000000;strokeWidth=3;fillColor=#e51400;strokeColor=#B20000;" edge="1" parent="1">
          <mxGeometry width="50" height="50" relative="1" as="geometry">
            <mxPoint x="590" y="387" as="sourcePoint" />
            <mxPoint x="170" y="387" as="targetPoint" />
          </mxGeometry>
        </mxCell>
        <mxCell id="R8XW2edu5AEeeAmSSgoU-22" value="&lt;b&gt;Successful Notify&lt;/b&gt;" style="text;html=1;align=center;verticalAlign=middle;resizable=0;points=[];autosize=1;strokeColor=none;fillColor=none;fontSize=16;fontColor=#000000;" vertex="1" parent="1">
          <mxGeometry x="190" y="350" width="160" height="30" as="geometry" />
        </mxCell>
        <mxCell id="R8XW2edu5AEeeAmSSgoU-23" value="" style="endArrow=classic;html=1;rounded=0;fontSize=16;fontColor=#000000;strokeWidth=3;fillColor=#60a917;strokeColor=#2D7600;" edge="1" parent="1">
          <mxGeometry width="50" height="50" relative="1" as="geometry">
            <mxPoint x="161" y="465" as="sourcePoint" />
            <mxPoint x="820" y="465" as="targetPoint" />
          </mxGeometry>
        </mxCell>
        <mxCell id="R8XW2edu5AEeeAmSSgoU-25" value="&lt;b&gt;Write Data&lt;/b&gt;" style="text;html=1;align=center;verticalAlign=middle;resizable=0;points=[];autosize=1;strokeColor=none;fillColor=none;fontSize=16;fontColor=#000000;" vertex="1" parent="1">
          <mxGeometry x="665" y="434" width="100" height="30" as="geometry" />
        </mxCell>
        <mxCell id="R8XW2edu5AEeeAmSSgoU-28" value="" style="endArrow=classic;html=1;rounded=0;fontSize=16;fontColor=#000000;strokeWidth=3;fillColor=#e51400;strokeColor=#B20000;" edge="1" parent="1">
          <mxGeometry width="50" height="50" relative="1" as="geometry">
            <mxPoint x="590" y="549" as="sourcePoint" />
            <mxPoint x="360" y="549" as="targetPoint" />
          </mxGeometry>
        </mxCell>
        <mxCell id="R8XW2edu5AEeeAmSSgoU-29" value="&lt;b&gt;Notify&lt;/b&gt;" style="text;html=1;align=center;verticalAlign=middle;resizable=0;points=[];autosize=1;strokeColor=none;fillColor=none;fontSize=16;fontColor=#000000;" vertex="1" parent="1">
          <mxGeometry x="446" y="519" width="70" height="30" as="geometry" />
        </mxCell>
        <mxCell id="R8XW2edu5AEeeAmSSgoU-30" value="" style="endArrow=classic;html=1;rounded=0;fontSize=16;fontColor=#000000;strokeWidth=3;fillColor=#1ba1e2;strokeColor=#006EAF;" edge="1" parent="1">
          <mxGeometry width="50" height="50" relative="1" as="geometry">
            <mxPoint x="360" y="640" as="sourcePoint" />
            <mxPoint x="820" y="640" as="targetPoint" />
          </mxGeometry>
        </mxCell>
        <mxCell id="R8XW2edu5AEeeAmSSgoU-31" value="&lt;b&gt;Polling Data&lt;/b&gt;" style="text;html=1;align=center;verticalAlign=middle;resizable=0;points=[];autosize=1;strokeColor=none;fillColor=none;fontSize=16;fontColor=#000000;" vertex="1" parent="1">
          <mxGeometry x="650" y="608" width="120" height="30" as="geometry" />
        </mxCell>
        <mxCell id="R8XW2edu5AEeeAmSSgoU-32" value="" style="endArrow=classic;html=1;rounded=0;fontSize=16;fontColor=#000000;strokeWidth=3;fillColor=#60a917;strokeColor=#2D7600;" edge="1" parent="1">
          <mxGeometry width="50" height="50" relative="1" as="geometry">
            <mxPoint x="160" y="730" as="sourcePoint" />
            <mxPoint x="820" y="730" as="targetPoint" />
          </mxGeometry>
        </mxCell>
        <mxCell id="R8XW2edu5AEeeAmSSgoU-33" value="&lt;b&gt;Polling State&lt;/b&gt;" style="text;html=1;align=center;verticalAlign=middle;resizable=0;points=[];autosize=1;strokeColor=none;fillColor=none;fontSize=16;fontColor=#000000;" vertex="1" parent="1">
          <mxGeometry x="190" y="695" width="120" height="30" as="geometry" />
        </mxCell>
      </root>
    </mxGraphModel>
  </diagram>
</mxfile>
